<?xml version="1.0" encoding="UTF-8" standalone="no"?>
<!DOCTYPE svg PUBLIC "-//W3C//DTD SVG 1.1//EN" "http://www.w3.org/Graphics/SVG/1.1/DTD/svg11.dtd">
<svg width="100%" height="100%" viewBox="0 0 800 800" version="1.1" xmlns="http://www.w3.org/2000/svg" xmlns:xlink="http://www.w3.org/1999/xlink" xml:space="preserve" xmlns:serif="http://www.serif.com/" style="fill-rule:evenodd;clip-rule:evenodd;stroke-miterlimit:2;">
    <rect id="Artboard1" x="0" y="0" width="800" height="800" style="fill:none;"/>
    <g id="Artboard11" serif:id="Artboard1">
        <g transform="matrix(4.16667,0,0,4.16667,-2683.2,-2145.55)">
            <g transform="matrix(0.541766,-0.840529,0.840529,0.541766,-186.961,826.061)">
                <text x="664.133px" y="584.5px" style="font-family:'Roboto-Regular', 'Roboto';font-size:24px;">w</text>
            </g>
            <g transform="matrix(0.686011,-0.727591,0.727591,0.686011,-202.661,669.282)">
                <text x="674.116px" y="569.449px" style="font-family:'Roboto-Regular', 'Roboto';font-size:24px;">a</text>
            </g>
            <g transform="matrix(0.775942,-0.630804,0.630804,0.775942,-200.209,556.418)">
                <text x="683.154px" y="560.04px" style="font-family:'Roboto-Regular', 'Roboto';font-size:24px;">r</text>
            </g>
            <g transform="matrix(0.842154,-0.539236,0.539236,0.842154,-190.342,459.309)">
                <text x="689.381px" y="554.78px" style="font-family:'Roboto-Regular', 'Roboto';font-size:24px;">s</text>
            </g>
            <g transform="matrix(0.911721,-0.41081,0.41081,0.911721,-163.38,335.89)">
                <text x="699.848px" y="548.094px" style="font-family:'Roboto-Regular', 'Roboto';font-size:24px;">z</text>
            </g>
            <g transform="matrix(0.95188,-0.306471,0.306471,0.95188,-132.314,243.964)">
                <text x="710.733px" y="543.328px" style="font-family:'Roboto-Regular', 'Roboto';font-size:24px;">t</text>
            </g>
            <g transform="matrix(0.983401,-0.181444,0.181444,0.983401,-86.2001,139.286)">
                <text x="718.186px" y="540.78px" style="font-family:'Roboto-Regular', 'Roboto';font-size:24px;">a</text>
            </g>
            <g transform="matrix(0.998042,-0.0625517,0.0625517,0.998042,-32.2579,46.7844)">
                <text x="731.07px" y="538.587px" style="font-family:'Roboto-Regular', 'Roboto';font-size:24px;">t</text>
            </g>
            <g transform="matrix(0.991646,0.128992,-0.128992,0.991646,75.635,-91.5826)">
                <text x="744.836px" y="538.112px" style="font-family:'Roboto-Regular', 'Roboto';font-size:24px;">s</text>
            </g>
            <g transform="matrix(0.969936,0.243362,-0.243362,0.969936,154.143,-168.015)">
                <text x="757.086px" y="539.862px" style="font-family:'Roboto-Regular', 'Roboto';font-size:24px;">t</text>
            </g>
            <g transform="matrix(0.930191,0.367075,-0.367075,0.930191,252.158,-242.835)">
                <text x="764.529px" y="541.544px" style="font-family:'Roboto-Regular', 'Roboto';font-size:24px;">o</text>
            </g>
            <g transform="matrix(0.881307,0.472544,-0.472544,0.881307,350.625,-302.353)">
                <text x="777.18px" y="546.783px" style="font-family:'Roboto-Regular', 'Roboto';font-size:24px;">l</text>
            </g>
            <g transform="matrix(0.823032,0.567995,-0.567995,0.823032,450.515,-347.203)">
                <text x="782.448px" y="549.382px" style="font-family:'Roboto-Regular', 'Roboto';font-size:24px;">a</text>
            </g>
            <g transform="matrix(0.740986,0.67152,-0.67152,0.740986,579.381,-388.344)">
                <text x="793.101px" y="556.881px" style="font-family:'Roboto-Regular', 'Roboto';font-size:24px;">r</text>
            </g>
            <g transform="matrix(0.660686,0.750662,-0.750662,0.660686,693.254,-409.188)">
                <text x="799.249px" y="562.246px" style="font-family:'Roboto-Regular', 'Roboto';font-size:24px;">s</text>
            </g>
            <g transform="matrix(0.537018,0.843571,-0.843571,0.537018,855.976,-416.564)">
                <text x="807.486px" y="571.529px" style="font-family:'Roboto-Regular', 'Roboto';font-size:24px;">k</text>
            </g>
            <g transform="matrix(0.452706,0.89166,-0.89166,0.452706,964.252,-407.299)">
                <text x="813.915px" y="581.837px" style="font-family:'Roboto-Regular', 'Roboto';font-size:24px;">i</text>
            </g>
        </g>
        <g transform="matrix(2.00526e-16,-3.27484,3.27484,2.00526e-16,-1064.14,2016.91)">
            <path d="M418.352,402.175L446.617,474.737L476.148,396.902L504.414,474.737L534.438,402.175L552.227,402.175L503.711,517.628L475.797,440.706L446.688,517.698L400.563,402.175L418.352,402.175Z" style="fill-rule:nonzero;"/>
        </g>
        <g transform="matrix(2.00526e-16,-3.27484,3.27484,2.00526e-16,-1053.13,1984.53)">
            <path d="M418.352,402.175L446.617,474.737L476.148,396.902L504.414,474.737L503.711,517.628L475.797,440.706L446.688,517.698L400.563,402.175L418.352,402.175Z" style="fill:white;fill-rule:nonzero;stroke:black;stroke-width:0.64px;"/>
        </g>
    </g>
</svg>
